{"asset":{"version":"2.0","generator":"VECTARY"},"scene":0,"extensionsUsed":["KHR_texture_transform"],"nodes":[{"translation":[-0.011584102360555562,0.12307107412210264,-0.008205614435061974],"scale":[0.001,0.001,0.0006672339295127096],"rotation":[0,0,0,1],"name":"natori - natori.png - baked","mesh":0},{"translation":[-0.008081719520613774,0.08015446373448537,1.138296838395168],"scale":[1,1,1],"rotation":[-0.0010479028859479433,-0.15564403756834136,-0.00016511211725736552,0.9878126382097746],"name":"Camera","camera":0}],"materials":[{"pbrMetallicRoughness":{"baseColorFactor":[1,1,1,1],"baseColorTexture":{"index":0,"extensions":{"KHR_texture_transform":{"offset":[0,0],"scale":[0.9999999906141116,1],"rotation":0}},"texCoord":0},"metallicFactor":0,"roughnessFactor":1},"name":"Material 2","emissiveTexture":{"index":1,"extensions":{"KHR_texture_transform":{"offset":[0,0],"scale":[0.9999999906141116,1],"rotation":0}},"texCoord":0},"emissiveFactor":[0,0,0],"alphaMode":"BLEND","doubleSided":true}],"textures":[{"sampler":0,"source":0},{"sampler":0,"source":1}],"images":[{"uri":"73a6afc1-d737-4a2a-b8ce-6d73fe52cbcc.png","mimeType":"image/png"},{"uri":"505662a4-6e88-4042-8fbb-7e0f6d0dd62b.png","mimeType":"image/png"}],"samplers":[{"wrapS":33071,"wrapT":33071}],"meshes":[{"primitives":[{"mode":4,"attributes":{"POSITION":1,"NORMAL":2,"TEXCOORD_0":3},"material":0,"indices":0}]}],"accessors":[{"bufferView":0,"byteOffset":0,"componentType":5125,"count":24,"type":"SCALAR"},{"bufferView":1,"byteOffset":0,"componentType":5126,"count":24,"max":[53.23624801635742,128,0.20000000298023224],"min":[-53.23624801635742,-128,0.20000000298023224],"type":"VEC3"},{"bufferView":2,"byteOffset":0,"componentType":5126,"count":24,"type":"VEC3"},{"bufferView":3,"byteOffset":0,"componentType":5126,"count":24,"type":"VEC2"}],"bufferViews":[{"buffer":0,"byteOffset":0,"byteLength":96,"target":34963},{"buffer":0,"byteOffset":96,"byteLength":288,"target":34962},{"buffer":0,"byteOffset":384,"byteLength":288,"target":34962},{"buffer":0,"byteOffset":672,"byteLength":192,"target":34962}],"cameras":[{"name":"Camera","type":"perspective","extras":{"targetDistance":1.2460406232477241},"perspective":{"aspectRatio":1.3544668587896254,"yfov":0.6108652381980153,"zfar":67.3162753109446,"znear":0.005856144045070631}}],"scenes":[{"nodes":[0,1],"name":"natori"}],"buffers":[{"byteLength":864,"uri":"natori.bin"}]}