# Vectary OBJ Export units=mm
mtllib Project Name.mtl
o 000_natori
g natori
usemtl Material 1_c3df8b53-cb1f-425b-a7bd-812c84c0110b
v -53.236 -0.200 -128.000
v -53.236 -0.200 0.000
v -53.236 -0.200 128.000
v 0.000 -0.200 -128.000
v 0.000 -0.200 0.000
v 0.000 -0.200 128.000
v 53.236 -0.200 -128.000
v 53.236 -0.200 0.000
v 53.236 -0.200 128.000
vt 0.00000 0.00000
vt 0.00000 0.50000
vt 0.00000 1.00000
vt 0.50000 0.00000
vt 0.50000 0.50000
vt 0.50000 1.00000
vt 1.00000 0.00000
vt 1.00000 0.50000
vt 1.00000 1.00000
vn 0.00000 -1.00000 0.00000
vn 0.00000 -1.00000 0.00000
vn 0.00000 -1.00000 0.00000
vn 0.00000 -1.00000 0.00000
vn 0.00000 -1.00000 0.00000
vn 0.00000 -1.00000 0.00000
vn 0.00000 -1.00000 0.00000
vn 0.00000 -1.00000 0.00000
vn 0.00000 -1.00000 0.00000
vn 0.00000 -1.00000 0.00000
vn 0.00000 -1.00000 0.00000
vn 0.00000 -1.00000 0.00000
vn 0.00000 -1.00000 0.00000
vn 0.00000 -1.00000 0.00000
vn 0.00000 -1.00000 0.00000
vn 0.00000 -1.00000 0.00000
f 2/2/2 1/1/3 4/4/4 5/5/1 
f 3/3/6 2/2/7 5/5/8 6/6/5 
f 5/5/10 4/4/11 7/7/12 8/8/9 
f 6/6/14 5/5/15 8/8/16 9/9/13 
